<svg width="457" height="80" viewBox="0 0 457 80" fill="none" xmlns="http://www.w3.org/2000/svg">
<path d="M13.9171 0.819183L41.6498 17.0529V79.2824L13.9171 63.0486V0.819183Z" fill="#11FAA6"/>
<path d="M94.4095 79.2823L94.4095 47.153L13.9109 0.819276L13.9169 32.9486L94.4095 79.2823Z" fill="#22C68B"/>
<path d="M66.6768 0.819183L94.4095 17.0529V79.2823L66.6768 63.0486V0.819183Z" fill="#11FAA6"/>
<path d="M136.738 79.8575C130.751 79.8575 125.37 78.6102 120.595 76.1158C115.891 73.6214 112.185 70.0579 109.477 65.4254C106.769 60.7929 105.415 55.3408 105.415 49.069C105.415 42.8686 106.769 37.4521 109.477 32.8196C112.257 28.1871 115.998 24.6236 120.702 22.1292C125.477 19.6347 130.858 18.3875 136.845 18.3875C142.831 18.3875 148.177 19.6347 152.88 22.1292C157.655 24.6236 161.397 28.1871 164.105 32.8196C166.885 37.4521 168.275 42.8686 168.275 49.069C168.275 55.2695 166.885 60.7216 164.105 65.4254C161.397 70.0579 157.655 73.6214 152.88 76.1158C148.105 78.6102 142.724 79.8575 136.738 79.8575ZM136.738 61.6837C139.66 61.6837 142.083 60.6147 144.007 58.4766C146.003 56.2673 147.001 53.1314 147.001 49.069C147.001 45.0067 146.003 41.9065 144.007 39.7684C142.083 37.6303 139.695 36.5612 136.845 36.5612C133.994 36.5612 131.606 37.6303 129.682 39.7684C127.758 41.9065 126.796 45.0067 126.796 49.069C126.796 53.2027 127.722 56.3385 129.575 58.4766C131.428 60.6147 133.816 61.6837 136.738 61.6837Z" fill="black"/>
<path d="M255.695 18.6013C263.249 18.6013 269.165 20.882 273.441 25.4432C277.788 30.0044 279.962 36.2405 279.962 44.1514V79.1091H259.009V46.931C259.009 43.7238 258.118 41.2294 256.336 39.4477C254.554 37.6659 252.131 36.775 249.067 36.775C246.002 36.775 243.579 37.6659 241.797 39.4477C240.015 41.2294 239.124 43.7238 239.124 46.931V79.1091H218.171V46.931C218.171 43.7238 217.28 41.2294 215.499 39.4477C213.788 37.6659 211.401 36.775 208.336 36.775C205.2 36.775 202.741 37.6659 200.96 39.4477C199.178 41.2294 198.287 43.7238 198.287 46.931V79.1091H177.334V19.1359H198.287V27.0468C200.14 24.4811 202.528 22.4499 205.45 20.9532C208.443 19.3853 211.864 18.6013 215.712 18.6013C220.131 18.6013 224.051 19.5635 227.472 21.4877C230.964 23.412 233.708 26.1203 235.704 29.6125C237.842 26.3341 240.657 23.6971 244.149 21.7016C247.641 19.6347 251.49 18.6013 255.695 18.6013Z" fill="black"/>
<path d="M288.555 49.069C288.555 42.8686 289.66 37.4521 291.869 32.8196C294.15 28.1871 297.214 24.6236 301.063 22.1292C304.983 19.6347 309.33 18.3875 314.105 18.3875C318.239 18.3875 321.802 19.2071 324.796 20.8463C327.789 22.4855 330.105 24.6949 331.744 27.4744V19.1359H352.698V79.1091H331.744V70.7706C330.105 73.5501 327.753 75.7595 324.689 77.3987C321.695 79.0379 318.168 79.8575 314.105 79.8575C309.33 79.8575 304.983 78.6102 301.063 76.1158C297.214 73.6214 294.15 70.0579 291.869 65.4254C289.66 60.7216 288.555 55.2695 288.555 49.069ZM331.744 49.069C331.744 45.2205 330.675 42.1915 328.537 39.9822C326.471 37.7728 323.905 36.6682 320.84 36.6682C317.704 36.6682 315.103 37.7728 313.036 39.9822C310.969 42.1203 309.936 45.1492 309.936 49.069C309.936 52.9176 310.969 55.9822 313.036 58.2628C315.103 60.4722 317.704 61.5768 320.84 61.5768C323.905 61.5768 326.471 60.4722 328.537 58.2628C330.675 56.0534 331.744 52.9889 331.744 49.069Z" fill="black"/>
<path d="M361.751 49.069C361.751 42.8686 362.856 37.4521 365.065 32.8196C367.346 28.1871 370.446 24.6236 374.366 22.1292C378.286 19.6347 382.633 18.3875 387.408 18.3875C391.257 18.3875 394.678 19.2071 397.671 20.8463C400.736 22.4143 403.123 24.588 404.834 27.3675V0H425.894V79.1091H404.834V70.7706C403.194 73.5501 400.878 75.7595 397.885 77.3987C394.891 79.0379 391.364 79.8575 387.301 79.8575C382.526 79.8575 378.179 78.6102 374.259 76.1158C370.41 73.6214 367.346 70.0579 365.065 65.4254C362.856 60.7216 361.751 55.2695 361.751 49.069ZM404.94 49.069C404.94 45.2205 403.871 42.1915 401.733 39.9822C399.667 37.7728 397.101 36.6682 394.036 36.6682C390.9 36.6682 388.299 37.7728 386.232 39.9822C384.165 42.1203 383.132 45.1492 383.132 49.069C383.132 52.9176 384.165 55.9822 386.232 58.2628C388.299 60.4722 390.9 61.5768 394.036 61.5768C397.101 61.5768 399.667 60.4722 401.733 58.2628C403.871 56.0534 404.94 52.9889 404.94 49.069Z" fill="black"/>
<circle cx="445.834" cy="69.3096" r="10.6904" fill="#11FAA6"/>
</svg>
